<?xml version="1.0" encoding="UTF-8" standalone="no"?>
<svg width="15px" height="13px" viewBox="0 0 432 361" version="1.1" xmlns="http://www.w3.org/2000/svg" xmlns:xlink="http://www.w3.org/1999/xlink" xmlns:sketch="http://www.bohemiancoding.com/sketch/ns">
    <!-- Generator: Sketch 3.4.2 (15855) - http://www.bohemiancoding.com/sketch -->
    <title>Shape</title>
    <desc>Created with Sketch.</desc>
    <defs></defs>
    <g id="Page-1" stroke="none" stroke-width="1" fill="none" fill-rule="evenodd" sketch:type="MSPage">
        <g sketch:type="MSLayerGroup" id="arrow_icon" fill="#000000">
            <g transform="translate(216.000000, 180.500000) rotate(180.000000) translate(-216.000000, -180.500000) translate(0.000000, -0.000000)" sketch:type="MSShapeGroup">
                <path d="M51.5,242.7 C61.6,243.2 76.1,238.9 85.1,238.6 C97.2,240.8 109.3,242.9 121.4,245.1 C126.6,245 134.5,238.9 139.7,238.8 C145.4,240.8 151.1,242.9 156.9,244.9 C162.1,244.9 170.7,239.2 175.2,238.6 C190.5,236.4 228.3,237.6 235.3,250.4 C243.9,257.1 240.5,261.6 244.5,269.7 C238.4,284.2 228.9,289.9 217.2,292.1 C209,320.6 223,324 227.6,344 C237.4,349.6 247.2,355.3 257,360.9 C272.4,356.7 287.8,352.6 303.2,348.4 C304.6,341.4 306.1,334.4 307.5,327.4 C309.4,325 317.1,323.6 319.1,321.9 C327.3,315.3 332.5,303.6 340.7,297.4 C354.6,291.6 368.4,285.8 382.3,280 L394.1,264.9 C399.2,260.9 410.2,258.1 414.5,252.9 C424.3,241 420,229.2 431.4,223.5 C433.3,215.1 427.3,177.1 423.8,172.5 C415.9,167.6 408,162.6 400.1,157.7 C398.6,152.9 397.1,148 395.6,143.2 C391.1,137.7 386.4,139.7 383.4,132.4 C384.1,130.5 384.7,128.6 385.4,126.7 C381.5,119.7 370.8,118.9 364.6,112.9 C358.1,106.5 355.3,93.7 347.9,87.7 C334.6,82.9 321.3,78.2 307.9,73.4 C299.7,67 292.7,52.1 285.5,46.1 C274.4,41.1 263.4,36.1 252.3,31.1 C243.7,22.7 239,7.8 227.9,0 C217.1,6.2 178.8,14.3 165.4,13.1 C162.9,24.3 165.6,30.3 165.8,39 C163,44 158.8,45.1 160.7,53.3 C162,58.8 168.9,62.4 171.9,66.9 C179.8,78.7 182.9,98.4 180.5,115 C200.2,127.4 218.6,143.9 232.3,159.1 C219,176.7 192.4,163.3 169.9,162.7 C156.5,162.3 139.5,166.7 126.7,166.6 C110.3,166.5 96.4,156.9 79,156.1 C61.4,155.3 30.8,155.4 15.6,162.5 C12.4,164.3 9,170 5.8,171.9 C-5,201.7 4.5,206.7 8.5,227.5 C23,232.6 37.2,237.6 51.5,242.7" id="Shape"></path>
            </g>
        </g>
    </g>
</svg>
