<svg viewBox="0 0 1000 1000">
<path d="M781.8,391.5c-18.4-0.9-36.8-2.2-55.1-3.3c-4.1-0.2-7.6-0.1-10.3-4.8c-8-13.8-17.9-25.8-30.6-35.9
	c-22.6-18-47.1-25.3-75.9-21.3c-14.7,2-28.8,3.2-43.5,8.1c-15.3,5.2-32.9,4.5-47.4,14.2c-7.6,3.9-15.8,3.7-24.1,4.6
	c-17,2-37.1-3.7-47.9,16.6c-0.5,0.9-2.2,1.1-3.3,1.6c-16.9,7.8-25.4,21.9-27.6,39.6c-2.7,21.5,1.8,43.1-1.1,64.7
	c-0.3,2.2,1.6,6.3-1.8,5.6c-8.4-1.6-14.2,7.9-22.4,4.5c-1.8-0.8-1-3.1-0.2-4.4c6.2-9.7,10.4-18.9,1.4-29.8c-2-2.4,0.5-9-5.5-10
	c-6.5-1.1-9.4,3.4-11.9,8.4c-11.3,22.8-29.5,40.7-46.7,58.3c-28.8,29.4-57.3,59.3-88.1,87c-19.9,17.9-34.1,41.7-56.4,57.5
	c-9.1,6.4-11.5,15.7-10,26c1.3,8.5,2.3,17.5,5.9,25.1c5.1,11,11.5,24.1,24.7,25c19,1.3,38.8,1.9,56.4-8.9c3.9-2.4,6.9-5.2,6.8-9.6
	c-0.5-20.4,12.9-35,22.2-50.6c6.6-11.2,12.8-23.7,27.2-30.9c7.1-3.5,14.5-17.9,14.3-30.7c-0.2-11.3,6.7-18.4,15.9-23
	c6.5-3.2,11.6-8,16.3-12.9c5.2-5.4,5.1-18.3,17.9-10.1c0.2,0.1,1.9-1.4,2.4-2.5c8.1-15.8,26-19.5,37.9-30.5
	c6.9-6.4,10.8-3.6,13.3,4.2c4.8,14.7,13.2,26.2,25.5,36.7c28.5,24.2,60.8,30.9,96.2,25.4c19.8-3,39.2-8.3,58.6-13.4
	c14.7-3.8,30-4.6,44.3-10c11.9-4.4,24-8.6,36.3-11.4c14.2-3.2,30.4-19.8,32.9-34.4c4-23.1,4.5-46.1,1.6-69.5
	c-2.8-22-2.2-23.6,19-25.1c14.1-1,23.4-11.2,36.4-13.4c3.8-0.6,8.5-5.5,7.2-10.2C791.5,393.9,786.9,391.8,781.8,391.5z M235.2,707.7
	c-9.7,7.3-33.7,0.7-38.5-10.8c-3-5-2.4-10.6,2.5-13.9c5.5-3.7,7.1,3,10.5,5.4c7.7,5.4,11.8,18.4,25.2,12.5c0.7-0.3,3,1.4,3,1.6
	C237.1,704.3,236.6,706.6,235.2,707.7z M702.5,432.7c-3.6,8.7-3.6,17.7-3.2,26.7c0.4,9.3-0.5,18.1-5.4,26.2
	c-1.3,2.2-3.1,4.3-5.9,3.2c-2.1-0.8-2.6-3.1-2.3-5.3c2.5-21.3-8.5-39.8-12.5-59.8c-0.7-3.3-3.9-6.1-6.3-8.9c-2.8-3.2-7-6.3-10.7-3.4
	c-3.5,2.8-7.1,6.5-4.4,12.8c3.5,8.3,6,17.2,9,25.6c7,19.5-3.4,33-12.6,47.8c3.3-20.5-3.7-39.1-9.7-57.4c-3.1-9.4-9.2-19.2-19.9-23.8
	c-3.8-1.6-7.3-2.4-10.4,0.8c-3.4,3.6-3.1,8.5-0.3,11.5c11.4,12.3,11.4,29,17.8,43.2c1.5,3.3,1.8,8.3,0.3,9.5
	c-9.2,7.1-11.2,17.2-11.8,28.6c-13.9-10.4-8.1-8.8-11.6-39.7c-0.8-7.1-0.1-14.4-7-18.7c-7.7-4.8-15.6,1.9-23.9,0.5
	c-3-0.5-3.3,7.6-1.1,11.7c6.9,12.4,4.9,26.5,8.2,39.6c0.5,2,1.4,4.5-1.5,4.9c-1.7,0.2-4.2-1.1-5.3-2.5c-4.5-5.4-4.2-12.8-4.9-18.9
	c-1.6-13.9-9.7-25.3-11.9-39c-1.9-11.6-14.3-14.2-21.5-6.4c-2.7,2.8-3.9,5.8-1.3,8.7c13.4,14.9,7.7,32.3,6.8,49.1
	c-0.3,4.9-1.9,9.7-1.9,14.6c0,7-4.4,11.9-9.7,12.7c-14.1,1.9-25.2,10.1-37.3,16c-7.5,3.6-11.5,3.4-12.9-6.9
	c-0.7-5-0.1-14.6-11.7-14.2c-4.4,0.2-5.4-8.7-7-13.7c-1.7-5.6,4.1-5.5,7.1-6.6c9.4-3.4,16.1-14.5,29.5-8.3
	c3.1,1.4,14.4-7.5,13.2-17.6c-1.1-9.2-2.7-19.2-15.3-18.4c-13.2,0.9-26.7-5.9-39.7,5.1c-8.2,6.9-9.2-3.6-8.5-8.4
	c4-26.7,14.2-49.4,43.2-57c9.2-2.4,12.1-10.7,18-16.1c13.3-12.1,30.9-9.4,46.2-14.5c17-5.6,34.9-8.1,52.3-12.4c4.2-1.1,8.1,0.2,12,0
	c3-0.2,6.1,1.4,8.7-2.6c6.4-10,13.5-5.9,20.7-0.4c7.8,6,15,13.2,26.1,12.7c4.7-0.2,7.3,3.4,9,7.1c2.5,5.4,6.5,9.4,10.7,13.3
	C703.7,395,708.8,417.3,702.5,432.7z"/>
</svg>
