<svg viewBox="0 0 1000 1000">
<g>
	<path d="M680.1,732.2c-5.4-19-6.7-39.6-19.4-56c-4-5.2-5.1-11.4-3.2-16.7c13-37-0.2-71.8-7.7-107.4c-8-37.8-30.2-70.3-37.3-108.7
		c-2.5-13.3-12.5-29.8-29-35.2c-14.5-4.7-28.5-9.4-45.2-3.7c-19.5,6.7-14.3-14.1-18.2-22.7c-3.8-8.5,4.3-11.6,12.7-12.2
		c23-1.5,46.1,0.8,67.8,6.1c34.6,8.5,56.1-11,69.8-37.5c5.4-10.4,1-26.6-9.8-26c-11.2,0.7-19.2-4.6-28.8-5.3
		c-8.3-0.6-19.5-4.1-24.8,1.8c-11.3,12.7-24.9,9.5-38.2,9.6c-0.4,0-0.8,0-1.2,0c3.8-3.9,8.1-5.2,14.3-4.9c8.3,0.4,14.1-2.2,14-12
		c-0.1-7-1.2-13.5-9.3-15.1c-7.3-1.5-14-1.2-17.4,7.9c-1.8,4.9-2.6,12.9-10.9,11.1c-3.6-0.8-6.8-4.8-5.8-9.2
		c1.5-6.5-7.1-15,3.6-19.6c8.4-3.6,15.2-8.8,10.8-18.8c-3.5-8.1-12.5-8.4-18.9-5.6c-7.5,3.3-8.6,9.9-6.6,19.2
		c2.9,13.7-14.3,17.3-19.1,28c-0.2,0.6-7.8-0.4-8.4-2c-1.9-4.7-2.8-10.3,1.9-14.5c8.6-7.7,10.8-19,16.3-28.4
		c4.6-7.8,1.1-13.5-3.6-16.6c-5.8-3.9-13.1-1.6-16.9,4.8c-4.3,7.1-10.6,14.8-10.7,22.3c-0.3,15.8-9.3,16.1-20.6,16.3
		c-14,0.2-16-8.6-16.2-19.3c-17.6-7-21.4-23.5-6-34.3c9.9-7,11.1-12.8,6-22.4c-2.5-4.7-4.1-9.8-10.5-10c-7.1-0.2-12.3,5.2-13,10.1
		c-3,22.9-13.8,34.1-38.1,35.2c-16.4,0.7-12.9,18.7-16,29.5c-2.4,8.4-0.9,18,4,26.4c-6.7,5.7-12.1-1.7-18.4-0.8
		c-8.4,1.2-13.8,5.2-16,12.2c-0.6,2-1.1,4.2-1.2,6.4c-10.1,0.2-20.3-1.7-26-14.1c-5.9-12.7-12.4-10.2-20.2-1.8
		c-12.6,13.6-7.9,27.8,1.3,39c13.6,16.4,16.6,46.4,48.2,41.9c7.5-1.1,14.7-4.5,22.1-6.7c3.7-1.1,8.4-3.5,11.1-2.1
		c19.9,10,40.6,0.5,60.6,3.7c10.5,1.6,27.4-8,27.7,13.9c0.4,22.4-16.2,17.1-29.1,17.4c-7.2,0.2-14.5-0.5-21.7,0.2
		c-10.9,1-22.8,5.4-23.3,16.8c-1,20.8-13.7,36.2-24.2,50.4c-26.7,36.1-41.4,75.3-34.9,118.9c5.3,35.8-0.7,67.6-15.3,99.4
		c-4.3,9.2-5.8,19.7-9.3,29.4c-7.6,21-7.8,34.9,15.9,50.4c14.9,9.7,21.8,10.7,35,4.2c11-5.5,24.5-5.7,34.2-0.8
		c19.1,9.7,38.8,7.1,57.6,5.1c15.6-1.7,31.5-5,46.6-2.5c28.7,4.8,56.9-2.4,85.2-0.5c16.2-0.4,32.3-0.1,48.5-2.2
		C670.7,770.7,686.4,754.3,680.1,732.2z M523,318.3c6.2-3.2,7.5-3.5,9.7,1.3c-4.4,0.2-8.7,0.3-13.1,0.4
		C520.7,319.4,521.8,318.9,523,318.3z M427,316.2c-4.3-0.3-8.6-0.5-12.9-0.8c0.9-4.2-0.1-10,7.2-8.8
		C427.6,307.7,427.6,312.1,427,316.2z M458.2,318.2c0.4-3.7,2.2-6.8,6.1-8.6c4.6-2.1,9.1-0.3,12.2,3.7c1.9,2.5,3.8,4.4,5.8,6.1
		C474.3,319.1,466.2,318.6,458.2,318.2z M606.4,672.7c-12,11.2-25.7,16.6-40.2,20.2c-21.2,5.2-42.9,8.9-64.5,11.7
		c-10.2,1.3-19.3-5.2-28.5-8.7c-22.1-8.5-27.2-14.7-19-38c3.7-10.5-14.2-14.8-25.5-10.4c-10.5,4.1-19.2,2.3-27.2-4
		c-2.6-2-4.6-7.5-3.7-10.4c1.3-4.4,6.5-3.7,10-1.8c8.4,4.5,14.4-2.4,21.6-3.9c8.1-1.7,6.9-8.1,6.8-13.9c-0.1-7.2-4-10.4-11-11.1
		c-9.6-1-19.1-2.9-28.7-3.9c-10.7-1.1-12.6-8.1-11.3-16.8c1.8-12,8.4-5.2,14.3-3.7c13,3.5,25.6-5.1,39.5-1.3
		c5.5,1.5,15.4-5.3,12.8-15.7c-2.6-10.3-10.8-20.1-20.4-16.9c-13,4.4-24-2.8-35.9-1.1c-3.9,0.5-10.1,1.9-10.2-5.4
		c-0.1-6.1,3.6-10.6,9.7-9.8c15,1.9,29-6,43.9-4.4c5.2,0,10.7,0.9,15.6-0.2c8.3-1.9,13.7-7.3,13.2-16.7
		c-0.5-10.1-7.6-10.8-15.3-10.6c-1.3,0-2.7,0.2-3.9,0c-7.8-1.6-21.4,4.4-22.2-4c-1-10.1,13.8-13.6,22.2-14.9
		c54.7-8.5,105.3,3.3,147.4,39.6c15.3,13.2,24,34,27.4,54.4C629.2,606.4,638.6,642.6,606.4,672.7z"/>
	<path d="M490.7,244.1c-0.7-6.5-8.5-8-13.6-9.4c-6.7-1.8-10.6,4.9-12.2,9.9c-1.6,5.1-0.4,11.1-0.3,16.7c6.1-0.1,12,0.1,18-3.5
		C488.5,254.3,491.3,249.1,490.7,244.1z"/>
	<path d="M501.3,224.6c6.7-0.4,13.7-5.6,12-12.2c-1.5-5.6-5.4-14.1-12.9-14.4c-7.9-0.3-11.9,6.3-13.9,13.8
		C489.1,219,493.2,225.2,501.3,224.6z"/>
	<path d="M464,261.4c0,0.1,0,0.2,0,0.3c0.2,0.1,0.4,0.2,0.7,0.3L464,261.4z"/>
	<path d="M464.7,261.4c-0.2,0-0.4,0-0.6,0c0,0,0.7,0.6,0.7,0.6C464.7,261.8,464.7,261.6,464.7,261.4z"/>
	<path d="M535.3,512.5c-7.7-2.2-14.9-1.4-21.2,8.2c-11.8,18.1-13.1,42-32.8,56c-4.5,3.2-5.1,16.8,2.3,23.3
		c8.7,7.6,17.9,12.2,31.3,7.4c9.1-3.3,15.9-9.5,13.8-15.5c-5.6-15.7,3.6-26,9-38c3.1-7,6.4-13.9,8.1-17.4
		C548.3,522.8,544.2,515,535.3,512.5z"/>
</g>
</svg>
