<svg viewBox="0 0 1000 1000">
<path d="M796.3,517.2c-1.2-15.6-6.8-23.6-21.6-23.6c-6.4,0-12.6-0.4-19.1-2c-37.4-9.4-74.5-7.7-110.5,7.9c-3.3,1.5-6.3,1.5-9-1
	c-3.3-3-3.7-6.6-2.1-11c2.9-8,5.5-15.9,5.7-24.9c0.4-20.2-2.4-40.6,2.8-60.7c1.4-5.2,0.4-10.8-3.4-16.3
	c-19.9-28.3-48.2-40.3-78.9-46.3c-31.1-6.1-62.7-4.9-90.5-3.6c-25.2-0.6-46.3,2.5-67.7,5.7c-25.6,3.8-45.5,21.5-70.1,26.8
	c-7.7,1.6-9.9,9.9-7.5,19.8c7,29.8,5.7,60.8,8.5,91.2c0.9,9.9-1.5,13.6-13,11.6c-24.2-4.3-47.9-13.1-72.8-11.2
	c-18.7,1.4-37.6,6.3-52.2,18.1c-13.2,10.6-11.7,26-6.4,44.5c15,52.2,49.4,81.3,92.5,102.5c19.8,9.7,39.9,18.3,62.3,19.6
	c33.5,1.9,64.9,18.2,99.3,15.8c15-1.1,30-8.1,44.9-2.9c11.9,4.1,23.8,3.3,35.4,2c25.5-2.8,50.5-15.9,76.6-3.2
	c0.9,0.4,2.3,0.4,3.2-0.1c23.8-12.4,51.2-4,76-23.1c22.1-17,50.6-26.2,70.6-48.1C771.6,580.2,799.7,558.7,796.3,517.2z M714.3,574.1
	c-7,1.6-14.3,1.1-22.9,1.7c18,13.3,5.3,18.6-4.6,22.2c-30.3,11.1-61.4,18.1-93.3,22.5c-20.6,2.8-41.2,6.9-61.4,11.2
	c-27.5,5.9-53.6-2.7-80.5-2.1c-22.2,0.4-45-1-67.5-5.2c-23.3-4.4-46.3-7.1-66.4-22c-3.4-2.5-7.5-4.9-11.5-5.3
	c-25-2.2-39.6-20.7-54.1-40.8c14.1,8.6,30.9-4.7,44.8,8.8c6.8,6.6,13.2,0,17.4-5.9c4.6-6.4,2.8-11.5-4.4-14.8
	c-2.5-1.1-7.8-1.8-5.8-6.4c1.7-4,4.8-8.4,9.5-8.8c11.5-1,20.6,4.7,18.9,17.4c-3.2,23.2,7.3,30.9,26,33c4.1,0.5,8.4,2.4,11.7,5
	c18.4,14.3,39.3,4.2,58.9,6.4c10.9,1.3,16.7-13.3,17.6-25.2c0.7-9-6.7-8.6-12.9-8.9c-16.1-0.8-32.4,2.6-48.2-3.3
	c-3-1.1-6.7-0.2-6.8-5.2c-0.2-6.7,5-6.2,8-5.2c20.4,6.6,41.7,0.7,62.5,5.7c10.4,2.5,22.5-0.2,33.3-3.2c7.5-2.1,14.8-2.6,22.3-2.8
	c6.1-0.2,12-1.6,13.8-8.9c1.9-7.9-1.6-12.7-8.4-16.4c-8-4.4-15.8-6.3-23.9-2.5c-8.3,3.9-16.5,4.5-25,1.2c-5.7-2.2-11.4-2-17.4,0.1
	c-18.8,6.7-37.2-4.2-56-2.3c-3.1,0.3-5.4-3.3-5.9-7.2c-0.6-4.3,1.8-6.7,5-7.9c3-1.1,6.6-2.5,9.4-1.7c31.1,8.8,62.3-3.8,93.2,0.4
	c13.7,1.9,24.7,3.3,33.8-10.2c3.4-5.1,6.6-9.5,4.8-15.6c-2.1-7.2-8.2-6.3-13.6-6.3c-28.1,0-55.9,5.5-84.1,3.8
	c-9.8-0.6-17.9-2.9-24.2-11c-1.5-1.9-5-3.1-2.8-6.8c1.6-2.8,4-3.1,7-3.1c17.5,0,35,0.3,52.5-0.6c13.9-0.7,17.2-8.5,9.5-20
	c-4.9-7.3-13.7-12.3-22-11.4c-19.7,2.2-35.3-12.3-53.8-15c-2.9-0.4-6-5.8-1.6-7.3c11.5-4,17.9-17.5,32.4-16.8
	c29.8,1.4,59.7,0.7,89.6,0.3c23.8-0.3,46.8,4.3,69.6,10.9c6.3,1.8,12.4,4.9,7.6,14.4c-0.9,1.8-0.8,5,0.1,6.9
	c20.5,40.9,6.4,84.5,9,126.8c0.7,11.5-5.8,16.9-14.2,20.1c-6.2,2.4-8.4,6.2-8.6,12.8c-0.2,8,4.4,11.2,10.2,13.8
	c12.8,5.5,43.3-6.5,50.4-19.2c2.9-5.2-1-7-2.6-10.4c-5.8-12.3-2.6-17.2,9.7-18.1c14.4-1.1,26.9-10,41.6-11.6
	c6.8-0.8,13.7-2,20.6-2.1c20.8-0.3,26.4,4.1,29.3,22.1C741.1,552.4,725.6,571.6,714.3,574.1z"/>
</svg>
